<svg xmlns="http://www.w3.org/2000/svg" viewBox="0 0 764.45 113.3"><defs><style>.cls-1{fill:#1a1a1a;}.cls-2{fill:#c1272d;}.cls-3{fill:#fff;}</style></defs><title>lips_draft</title><g id="Layer_6" data-name="Layer 6"><path class="cls-1" d="M113.89,25.73C108.14,28.69,95.32,29,88.5,29s-19.64-.26-25.39-3.22A166.45,166.45,0,0,1,29.16,47c2.53,2.7,15.93,7.31,22.46,7.31S63.89,53,72.86,53s13.75,1.31,15.64,4.36c1.89-3,6.67-4.36,15.64-4.36s14.71,1.31,21.24,1.31,19.93-4.61,22.46-7.31A166.45,166.45,0,0,1,113.89,25.73Z"/><rect class="cls-1" x="26.22" y="23.72" width="124.57" height="44.13"/><path class="cls-2" d="M112,0c-12.2,0-12.2,1.87-23.48,1.87S77.22,0,65,0C41.71,0,25,27.73,0,41.74,15,65.59,38.65,95,88.51,95S162,65.59,177,41.74C152,27.73,135.31,0,112,0Zm13.4,54.27c-6.54,0-12.28-1.29-21.25-1.29s-13.75,1.29-15.63,4.35C86.62,54.27,81.83,53,72.87,53s-14.71,1.29-21.25,1.29S31.69,49.66,29.16,47a166.22,166.22,0,0,0,34-21.25c5.75,3,18.58,3.22,25.4,3.22s19.64-.26,25.39-3.22A166,166,0,0,0,147.85,47C145.32,49.66,131.91,54.27,125.39,54.27Z"/><path class="cls-3" d="M126.4,34.9a14,14,0,0,1-12.09,6.62H62.68A14,14,0,0,1,50.6,34.9q6.4-4.28,12.51-9.18c5.75,3,18.57,3.22,25.39,3.22s19.64-.26,25.39-3.22Q120,30.64,126.4,34.9Z"/><path class="cls-1" d="M241.15,17.66V69.5h13.56V84.74H208.27V69.5h13.44V17.66H208.27V2.42h46.44V17.66Z"/><path class="cls-1" d="M320.78,26.78v26.4H305.06V45q-2.4-.12-6.48,2.52a44.93,44.93,0,0,0-8.4,7.32v15.6h11.4V84.74H260.66V70.46h11.28v-28H260.66V28.22h29.52V40.58a52.9,52.9,0,0,1,12-10.08q6.24-3.72,11.76-3.72Z"/><path class="cls-1" d="M388.33,75.86a42.51,42.51,0,0,1-13,7.74,44.86,44.86,0,0,1-16.14,2.82A39.25,39.25,0,0,1,342.91,83a29.83,29.83,0,0,1-12.3-10,26,26,0,0,1-4.68-15.54,28.52,28.52,0,0,1,4.68-16.08A31.44,31.44,0,0,1,343,30.5a36.51,36.51,0,0,1,16.56-3.84,39.41,39.41,0,0,1,13.86,2.28,21.78,21.78,0,0,1,9.48,6.48,15,15,0,0,1,3.42,9.72,14.49,14.49,0,0,1-6.9,12.9q-6.9,4.5-16.74,4.5a44.55,44.55,0,0,1-10.14-1.08,45.75,45.75,0,0,1-9.18-3.24,12.43,12.43,0,0,0,5.16,9.54,18.79,18.79,0,0,0,11.4,3.42,33.58,33.58,0,0,0,21-7.2Zm-35.94-33a17.3,17.3,0,0,0-6.54,5.76A38.8,38.8,0,0,0,358,50.54a17,17,0,0,0,7.5-1.5,4.27,4.27,0,0,0,2.58-3.9A3.71,3.71,0,0,0,366.13,42,9.29,9.29,0,0,0,361,40.7,18.32,18.32,0,0,0,352.39,42.86Z"/><path class="cls-1" d="M478.62,70.46V84.74h-37V70.46h9.12V54.74A11.14,11.14,0,0,0,448,46.88a10.16,10.16,0,0,0-7.86-3.06q-8.4,0-17.4,10.8V70.46h9.12V84.74H393.18V70.46h11.28v-28H393.18V28.22H422.7v12.6a52.55,52.55,0,0,1,11.94-10.68,23.39,23.39,0,0,1,12.3-3.36q10.8,0,16.44,7.08T469,54.74V70.46Z"/><path class="cls-1" d="M551.6,45.86a19.94,19.94,0,0,1,8.76,16.92,21.31,21.31,0,0,1-3.72,12.6,23.65,23.65,0,0,1-10.2,8.1A36.34,36.34,0,0,1,531.8,86.3a37.46,37.46,0,0,1-14.76-3,60.48,60.48,0,0,1-14-8.52v9.84H486.08v-30l12-.6a48,48,0,0,0,15.6,12.3q9.36,4.74,16.8,4.74a13.58,13.58,0,0,0,7-1.56,5.11,5.11,0,0,0,2.58-4.68c0-2.47-2-4.75-5.88-6.84s-10.73-4.44-20.4-7.08-16.61-6.1-21-10.38a21.58,21.58,0,0,1-6.6-16.14,20.29,20.29,0,0,1,4-12.42A26.27,26.27,0,0,1,500.6,3.68,33,33,0,0,1,514.4.74q14.76,0,24.72,9.24V2.42H556V31.58l-11.4.6a29.43,29.43,0,0,0-11-11.94A27.36,27.36,0,0,0,519.32,16a18.53,18.53,0,0,0-9.3,2c-2.36,1.37-3.54,3.2-3.54,5.52s1.48,4.19,4.44,5.82,8.32,3.5,16.08,5.58Q542.84,39.5,551.6,45.86Z"/><path class="cls-1" d="M635.55,83.06a20.61,20.61,0,0,1-5,1.86,27.65,27.65,0,0,1-6.72.78,14.67,14.67,0,0,1-8.46-2.58,14.37,14.37,0,0,1-5.46-7.38q-11,10.68-23.28,10.68a20.41,20.41,0,0,1-13.68-4.68q-5.52-4.68-5.52-13.44a16.2,16.2,0,0,1,3.54-10.5,21.52,21.52,0,0,1,9-6.54,30.56,30.56,0,0,1,11.34-2.16,41.28,41.28,0,0,1,9.3,1,46.2,46.2,0,0,1,8.22,2.76V49.34q0-3.6-3.66-5.46A20.81,20.81,0,0,0,595.71,42a47.07,47.07,0,0,0-9.72,1.2,77.82,77.82,0,0,0-11.4,3.48L571,33q15.12-6.24,27.36-6.24,13.56,0,20.64,6.36t7.08,17v17q0,3.48,3,3.48a9.47,9.47,0,0,0,3-.48ZM587.31,70.52a9.44,9.44,0,0,0,4.68,1,21.55,21.55,0,0,0,7.38-1.74,41.2,41.2,0,0,0,9.42-5.34v-.24A42,42,0,0,0,595,61.94a16.53,16.53,0,0,0-6.78,1.44,4.24,4.24,0,0,0-2.7,4A3.39,3.39,0,0,0,587.31,70.52Z"/><path class="cls-1" d="M705.79,42.5h-6.36L678.31,87.86q-6.12,13.32-13.26,19.38a24.9,24.9,0,0,1-16.62,6.06,26.74,26.74,0,0,1-9.06-1.44,46.65,46.65,0,0,1-8.82-4.44l7-13.8q6.12,3.72,10.92,3.72a13.73,13.73,0,0,0,8.58-2.7q3.54-2.7,6.66-9.18l-23-43h-6.84V28.22h33.84V40.94h-7.8L672,67l11.64-26h-7.44V28.22h29.64Z"/><path class="cls-1" d="M758.87,57.14a15.8,15.8,0,0,1,5.58,12.36,14.45,14.45,0,0,1-2.76,8.64A18.64,18.64,0,0,1,754,84.2a26.85,26.85,0,0,1-11.16,2.22q-12.12,0-19.8-7v5.4H710.33V66l8-.6a20.11,20.11,0,0,0,9,6.84,28.27,28.27,0,0,0,11,2.64,11,11,0,0,0,5.22-1,3,3,0,0,0,1.86-2.7q0-1.8-2.88-3.48c-1.92-1.12-5.72-2.47-11.4-4.08q-10.92-3-16.08-7.68A15.61,15.61,0,0,1,710,43.82a15.49,15.49,0,0,1,2.52-8.58,17.88,17.88,0,0,1,7.2-6.24,23.56,23.56,0,0,1,10.68-2.34q10.8,0,17.76,6.84V28.22h12.72V46.94l-7.92.72q-6.36-9.46-17-9.48a11.24,11.24,0,0,0-5.1,1,2.92,2.92,0,0,0-1.86,2.64q0,1.8,2.82,3.3A70,70,0,0,0,742.37,49Q753.29,52.22,758.87,57.14Z"/></g></svg>