<svg id="Layer_1" data-name="Layer 1" xmlns="http://www.w3.org/2000/svg" viewBox="0 0 84.28 45.24"><defs><style>.cls-1{fill:#1a1a1a;}.cls-2{fill:#c1272d;}.cls-3{fill:#fff;}</style></defs><title>lipsmark</title><path class="cls-1" d="M54.23,12.25c-2.74,1.41-8.85,1.53-12.09,1.53s-9.36-.12-12.09-1.53A79.25,79.25,0,0,1,13.89,22.36c1.2,1.29,7.58,3.48,10.69,3.48s5.84-.62,10.11-.62,6.55.62,7.45,2.07c.9-1.45,3.18-2.07,7.44-2.07s7,.62,10.12.62,9.49-2.19,10.69-3.48A79.25,79.25,0,0,1,54.23,12.25Z"/><rect class="cls-1" x="12.48" y="11.3" width="59.31" height="21.01"/><path class="cls-2" d="M53.32,0c-5.81,0-5.81.89-11.18.89S36.77,0,31,0C19.86,0,11.9,13.21,0,19.88,7.13,31.23,18.4,45.24,42.14,45.24s35-14,42.14-25.36C72.39,13.21,64.42,0,53.32,0ZM59.7,25.84c-3.11,0-5.84-.62-10.11-.62s-6.55.62-7.45,2.08c-.9-1.46-3.18-2.08-7.44-2.08s-7,.62-10.12.62-9.49-2.19-10.69-3.47A79.74,79.74,0,0,0,30.05,12.25c2.74,1.41,8.84,1.53,12.09,1.53s9.35-.12,12.09-1.53A79.53,79.53,0,0,0,70.4,22.37C69.19,23.65,62.81,25.84,59.7,25.84Z"/><path class="cls-3" d="M60.18,16.62a6.68,6.68,0,0,1-5.75,3.15H29.84a6.69,6.69,0,0,1-5.75-3.15c2-1.36,4-2.81,6-4.37,2.73,1.41,8.84,1.53,12.09,1.53s9.35-.12,12.09-1.53C56.17,13.81,58.14,15.27,60.18,16.62Z"/></svg>