<svg id="Layer_1" data-name="Layer 1" xmlns="http://www.w3.org/2000/svg" viewBox="0 0 379.96 56.09"><defs><style>.cls-1{fill:#1a1a1a;}.cls-2{fill:#c1272d;}.cls-3{fill:#fff;}</style></defs><title>lipslogotype_invert</title><path class="cls-1" d="M54.23,13.51C51.49,14.92,45.38,15,42.14,15s-9.36-.12-12.09-1.53A79.25,79.25,0,0,1,13.89,23.62c1.2,1.29,7.58,3.48,10.69,3.48s5.84-.62,10.11-.62,6.55.62,7.45,2.07c.9-1.45,3.18-2.07,7.44-2.07s7,.62,10.12.62,9.49-2.19,10.69-3.48A79.25,79.25,0,0,1,54.23,13.51Z"/><rect class="cls-1" x="12.48" y="12.55" width="59.31" height="21.01"/><path class="cls-2" d="M53.32,1.26c-5.81,0-5.81.89-11.18.89S36.77,1.26,31,1.26c-11.1,0-19.06,13.2-31,19.87C7.13,32.49,18.4,46.5,42.14,46.5s35-14,42.14-25.37C72.39,14.46,64.42,1.26,53.32,1.26ZM59.7,27.1c-3.11,0-5.84-.62-10.11-.62s-6.55.62-7.45,2.08c-.9-1.46-3.18-2.08-7.44-2.08s-7,.62-10.12.62-9.49-2.2-10.69-3.48A79.25,79.25,0,0,0,30.05,13.51C32.79,14.92,38.89,15,42.14,15s9.35-.12,12.09-1.53A79.05,79.05,0,0,0,70.4,23.62C69.19,24.9,62.81,27.1,59.7,27.1Z"/><path class="cls-3" d="M60.18,17.88A6.68,6.68,0,0,1,54.43,21H29.84a6.69,6.69,0,0,1-5.75-3.15c2-1.36,4-2.81,6-4.37C32.78,14.92,38.89,15,42.14,15s9.35-.12,12.09-1.53C56.17,15.07,58.14,16.52,60.18,17.88Z"/><path class="cls-3" d="M120,8.43V34.26h6.76v7.6H103.6v-7.6h6.69V8.43H103.6V.84h23.14V8.43Z"/><path class="cls-3" d="M159.82,13V26.13H152V22.07a6.1,6.1,0,0,0-3.23,1.25A22.69,22.69,0,0,0,144.58,27v7.77h5.68v7.12h-20.4V34.74h5.63V20.81h-5.63V13.69h14.72v6.16a26.3,26.3,0,0,1,6-5A11.46,11.46,0,0,1,156.42,13Z"/><path class="cls-3" d="M193.25,37.43a21.13,21.13,0,0,1-6.49,3.86,22.27,22.27,0,0,1-8,1.41,19.49,19.49,0,0,1-8.1-1.71,14.81,14.81,0,0,1-6.13-5,12.92,12.92,0,0,1-2.33-7.74,14.18,14.18,0,0,1,2.33-8,15.65,15.65,0,0,1,6.16-5.44,18.12,18.12,0,0,1,8.25-1.91,19.75,19.75,0,0,1,6.91,1.13,11,11,0,0,1,4.72,3.23,7.45,7.45,0,0,1,1.71,4.85,7.21,7.21,0,0,1-3.44,6.42,14.94,14.94,0,0,1-8.35,2.25,22.16,22.16,0,0,1-5-.54,22.71,22.71,0,0,1-4.57-1.62,6.19,6.19,0,0,0,2.57,4.76,9.4,9.4,0,0,0,5.68,1.7,16.67,16.67,0,0,0,10.46-3.59ZM175.34,21a8.67,8.67,0,0,0-3.26,2.87,19.28,19.28,0,0,0,6,1,8.54,8.54,0,0,0,3.74-.75,2.13,2.13,0,0,0,1.29-1.94,1.86,1.86,0,0,0-1-1.59,4.63,4.63,0,0,0-2.57-.63A9.12,9.12,0,0,0,175.34,21Z"/><path class="cls-3" d="M237.86,34.74v7.12H219.44V34.74H224V26.91A5.56,5.56,0,0,0,222.58,23a5.06,5.06,0,0,0-3.91-1.52q-4.2,0-8.68,5.38v7.89h4.55v7.12H195.28V34.74h5.62V20.81h-5.62V13.69H210V20a26.54,26.54,0,0,1,5.95-5.32A11.74,11.74,0,0,1,222.07,13q5.38,0,8.2,3.52t2.81,10.41v7.83Z"/><path class="cls-3" d="M274.39,22.48a10,10,0,0,1,4.37,8.44,10.62,10.62,0,0,1-1.86,6.28,11.84,11.84,0,0,1-5.08,4,18,18,0,0,1-7.29,1.41,18.6,18.6,0,0,1-7.36-1.5,30.51,30.51,0,0,1-7-4.24v4.9h-8.43V26.85l6-.3a23.91,23.91,0,0,0,7.78,6.13A18.82,18.82,0,0,0,263.87,35a6.75,6.75,0,0,0,3.5-.78,2.54,2.54,0,0,0,1.28-2.33q0-1.84-2.93-3.41A55.05,55.05,0,0,0,255.56,25q-7.19-2-10.47-5.18a10.75,10.75,0,0,1-3.29-8,10.1,10.1,0,0,1,2-6.19A13,13,0,0,1,249,1.46,16.52,16.52,0,0,1,255.85,0a17.46,17.46,0,0,1,12.32,4.6V.84h8.44V15.37l-5.69.3a14.59,14.59,0,0,0-5.47-5.95,13.57,13.57,0,0,0-7.14-2.13,9.22,9.22,0,0,0-4.64,1,3.09,3.09,0,0,0-1.76,2.75c0,1.12.74,2.09,2.21,2.9a39.33,39.33,0,0,0,8,2.78A39.9,39.9,0,0,1,274.39,22.48Z"/><path class="cls-3" d="M315.65,41a10.21,10.21,0,0,1-2.51.93,13.74,13.74,0,0,1-3.35.39,7.27,7.27,0,0,1-4.21-1.29,7.05,7.05,0,0,1-2.72-3.68q-5.5,5.33-11.61,5.33a10.13,10.13,0,0,1-6.81-2.34,8.25,8.25,0,0,1-2.75-6.69,8.06,8.06,0,0,1,1.76-5.24,10.69,10.69,0,0,1,4.49-3.25,15.14,15.14,0,0,1,5.65-1.08,20.46,20.46,0,0,1,4.63.48,23.78,23.78,0,0,1,4.1,1.37V24.22a2.93,2.93,0,0,0-1.83-2.72,10.3,10.3,0,0,0-4.69-.93,23,23,0,0,0-4.84.6,39.33,39.33,0,0,0-5.69,1.73l-1.79-6.81A36.05,36.05,0,0,1,297.11,13q6.76,0,10.29,3.17a10.85,10.85,0,0,1,3.53,8.49v8.49c0,1.16.5,1.73,1.49,1.73a4.71,4.71,0,0,0,1.5-.24Zm-24-6.25a4.72,4.72,0,0,0,2.34.51,10.68,10.68,0,0,0,3.67-.87,20.3,20.3,0,0,0,4.7-2.66v-.12a21.16,21.16,0,0,0-6.88-1.13,8.39,8.39,0,0,0-3.38.71,2.1,2.1,0,0,0-1.34,2A1.7,1.7,0,0,0,291.61,34.77Z"/><path class="cls-3" d="M350.57,20.81H347.4l-10.52,22.6q-3,6.65-6.61,9.66a12.42,12.42,0,0,1-8.28,3,13.25,13.25,0,0,1-4.51-.72,22.32,22.32,0,0,1-4.4-2.21l3.47-6.88A10.76,10.76,0,0,0,322,48.14a6.86,6.86,0,0,0,4.28-1.35,12.42,12.42,0,0,0,3.31-4.57L318.1,20.81h-3.4V13.69h16.86V20h-3.89l6,13,5.8-13H335.8V13.69h14.77Z"/><path class="cls-3" d="M377.18,28.11A7.85,7.85,0,0,1,380,34.26a7.19,7.19,0,0,1-1.38,4.31,9.24,9.24,0,0,1-3.82,3,13.37,13.37,0,0,1-5.56,1.11,14.14,14.14,0,0,1-9.87-3.47v2.69H353V32.53l4-.3a10,10,0,0,0,4.48,3.41A14.09,14.09,0,0,0,367,37a5.42,5.42,0,0,0,2.6-.51,1.52,1.52,0,0,0,.93-1.35c0-.6-.48-1.17-1.43-1.73a28.41,28.41,0,0,0-5.68-2c-3.63-1-6.3-2.27-8-3.82a7.8,7.8,0,0,1-2.57-6,7.71,7.71,0,0,1,1.26-4.28,8.9,8.9,0,0,1,3.58-3.11A11.87,11.87,0,0,1,363,12.92a12.08,12.08,0,0,1,8.85,3.41V13.69h6.34V23l-3.95.36a9.75,9.75,0,0,0-8.49-4.72,5.55,5.55,0,0,0-2.54.48,1.45,1.45,0,0,0-.93,1.31c0,.6.47,1.15,1.4,1.65A36.19,36.19,0,0,0,369,24,21.77,21.77,0,0,1,377.18,28.11Z"/></svg>